<mxfile host="app.diagrams.net" modified="2022-10-28T07:04:05.447Z" agent="5.0 (Windows NT 10.0; Win64; x64) AppleWebKit/537.36 (KHTML, like Gecko) Chrome/107.0.0.0 Safari/537.36" etag="gXSmkyY9Y87nWWUN-pVm" version="20.5.0" type="github" pages="2">
  <diagram name="Monolithique" id="929967ad-93f9-6ef4-fab6-5d389245f69c">
    <mxGraphModel dx="1422" dy="758" grid="1" gridSize="10" guides="1" tooltips="1" connect="1" arrows="1" fold="1" page="1" pageScale="1.5" pageWidth="1169" pageHeight="826" background="none" math="0" shadow="0">
      <root>
        <mxCell id="0" style=";html=1;" />
        <mxCell id="1" style=";html=1;" parent="0" />
        <mxCell id="1672d66443f91eb5-1" value="&lt;p style=&quot;margin: 0px ; margin-top: 4px ; margin-left: 10px ; text-align: left&quot;&gt;&lt;b&gt;App Monolithique&lt;/b&gt;&lt;/p&gt;&lt;p style=&quot;margin: 0px ; margin-top: 4px ; margin-left: 10px ; text-align: left&quot;&gt;&lt;b&gt;&lt;br&gt;&lt;/b&gt;&lt;/p&gt;" style="html=1;strokeWidth=1;shape=mxgraph.sysml.package;html=1;overflow=fill;whiteSpace=wrap;fillColor=none;gradientColor=none;fontSize=12;align=center;labelX=327.64;" parent="1" vertex="1">
          <mxGeometry x="320" y="295" width="800" height="650" as="geometry" />
        </mxCell>
        <mxCell id="1672d66443f91eb5-23" value="Title" style="text;strokeColor=none;fillColor=none;html=1;fontSize=9;fontStyle=1;verticalAlign=middle;align=center;" parent="1" vertex="1">
          <mxGeometry x="120" y="40" width="1510" height="40" as="geometry" />
        </mxCell>
        <mxCell id="JK57Fo3C8qKhbCxJsB5z-45" style="edgeStyle=orthogonalEdgeStyle;rounded=0;orthogonalLoop=1;jettySize=auto;html=1;exitX=1;exitY=0.5;exitDx=0;exitDy=0;entryX=0;entryY=0.5;entryDx=0;entryDy=0;fontSize=9;" parent="1" source="JK57Fo3C8qKhbCxJsB5z-1" target="JK57Fo3C8qKhbCxJsB5z-2" edge="1">
          <mxGeometry relative="1" as="geometry" />
        </mxCell>
        <mxCell id="JK57Fo3C8qKhbCxJsB5z-46" style="edgeStyle=orthogonalEdgeStyle;rounded=0;orthogonalLoop=1;jettySize=auto;html=1;exitX=1;exitY=0.5;exitDx=0;exitDy=0;entryX=0;entryY=0.5;entryDx=0;entryDy=0;fontSize=9;" parent="1" source="JK57Fo3C8qKhbCxJsB5z-1" target="JK57Fo3C8qKhbCxJsB5z-7" edge="1">
          <mxGeometry relative="1" as="geometry" />
        </mxCell>
        <mxCell id="JK57Fo3C8qKhbCxJsB5z-47" style="edgeStyle=orthogonalEdgeStyle;rounded=0;orthogonalLoop=1;jettySize=auto;html=1;exitX=1;exitY=0.5;exitDx=0;exitDy=0;entryX=0;entryY=0.5;entryDx=0;entryDy=0;fontSize=9;" parent="1" source="JK57Fo3C8qKhbCxJsB5z-1" target="JK57Fo3C8qKhbCxJsB5z-28" edge="1">
          <mxGeometry relative="1" as="geometry" />
        </mxCell>
        <mxCell id="JK57Fo3C8qKhbCxJsB5z-1" value="Redirect Controller" style="html=1;fontSize=9;" parent="1" vertex="1">
          <mxGeometry x="340" y="595" width="110" height="50" as="geometry" />
        </mxCell>
        <mxCell id="JK57Fo3C8qKhbCxJsB5z-39" style="edgeStyle=orthogonalEdgeStyle;rounded=0;orthogonalLoop=1;jettySize=auto;html=1;exitX=0.5;exitY=1;exitDx=0;exitDy=0;entryX=0.5;entryY=0;entryDx=0;entryDy=0;fontSize=9;" parent="1" source="JK57Fo3C8qKhbCxJsB5z-2" target="JK57Fo3C8qKhbCxJsB5z-32" edge="1">
          <mxGeometry relative="1" as="geometry" />
        </mxCell>
        <mxCell id="JK57Fo3C8qKhbCxJsB5z-40" style="edgeStyle=orthogonalEdgeStyle;rounded=0;orthogonalLoop=1;jettySize=auto;html=1;exitX=0.5;exitY=1;exitDx=0;exitDy=0;entryX=0.5;entryY=0;entryDx=0;entryDy=0;fontSize=9;" parent="1" source="JK57Fo3C8qKhbCxJsB5z-2" target="JK57Fo3C8qKhbCxJsB5z-33" edge="1">
          <mxGeometry relative="1" as="geometry">
            <Array as="points">
              <mxPoint x="545" y="400" />
              <mxPoint x="695" y="400" />
            </Array>
          </mxGeometry>
        </mxCell>
        <mxCell id="JK57Fo3C8qKhbCxJsB5z-41" style="edgeStyle=orthogonalEdgeStyle;rounded=0;orthogonalLoop=1;jettySize=auto;html=1;exitX=1;exitY=0.5;exitDx=0;exitDy=0;entryX=0;entryY=0.5;entryDx=0;entryDy=0;fontSize=9;" parent="1" source="JK57Fo3C8qKhbCxJsB5z-2" target="JK57Fo3C8qKhbCxJsB5z-3" edge="1">
          <mxGeometry relative="1" as="geometry" />
        </mxCell>
        <mxCell id="JK57Fo3C8qKhbCxJsB5z-2" value="User Rest Controller" style="html=1;fontSize=9;" parent="1" vertex="1">
          <mxGeometry x="490" y="340" width="110" height="50" as="geometry" />
        </mxCell>
        <mxCell id="JK57Fo3C8qKhbCxJsB5z-42" style="edgeStyle=orthogonalEdgeStyle;rounded=0;orthogonalLoop=1;jettySize=auto;html=1;exitX=1;exitY=0.5;exitDx=0;exitDy=0;entryX=0;entryY=0.5;entryDx=0;entryDy=0;fontSize=9;" parent="1" source="JK57Fo3C8qKhbCxJsB5z-3" target="JK57Fo3C8qKhbCxJsB5z-4" edge="1">
          <mxGeometry relative="1" as="geometry" />
        </mxCell>
        <mxCell id="JK57Fo3C8qKhbCxJsB5z-64" style="edgeStyle=orthogonalEdgeStyle;rounded=0;orthogonalLoop=1;jettySize=auto;html=1;exitX=0.5;exitY=0;exitDx=0;exitDy=0;entryX=0.5;entryY=0;entryDx=0;entryDy=0;fontSize=9;" parent="1" source="JK57Fo3C8qKhbCxJsB5z-3" target="JK57Fo3C8qKhbCxJsB5z-5" edge="1">
          <mxGeometry relative="1" as="geometry" />
        </mxCell>
        <mxCell id="JK57Fo3C8qKhbCxJsB5z-67" style="edgeStyle=orthogonalEdgeStyle;rounded=0;orthogonalLoop=1;jettySize=auto;html=1;exitX=0.5;exitY=0;exitDx=0;exitDy=0;fontSize=9;" parent="1" source="JK57Fo3C8qKhbCxJsB5z-3" target="JK57Fo3C8qKhbCxJsB5z-14" edge="1">
          <mxGeometry relative="1" as="geometry">
            <Array as="points">
              <mxPoint x="695" y="320" />
              <mxPoint x="1080" y="320" />
              <mxPoint x="1080" y="665" />
            </Array>
          </mxGeometry>
        </mxCell>
        <mxCell id="JK57Fo3C8qKhbCxJsB5z-68" style="edgeStyle=orthogonalEdgeStyle;rounded=0;orthogonalLoop=1;jettySize=auto;html=1;exitX=0.5;exitY=0;exitDx=0;exitDy=0;fontSize=9;" parent="1" source="JK57Fo3C8qKhbCxJsB5z-3" target="JK57Fo3C8qKhbCxJsB5z-29" edge="1">
          <mxGeometry relative="1" as="geometry">
            <Array as="points">
              <mxPoint x="695" y="320" />
              <mxPoint x="1080" y="320" />
              <mxPoint x="1080" y="600" />
              <mxPoint x="695" y="600" />
            </Array>
          </mxGeometry>
        </mxCell>
        <mxCell id="JK57Fo3C8qKhbCxJsB5z-3" value="User Service" style="html=1;fontSize=9;" parent="1" vertex="1">
          <mxGeometry x="640" y="340" width="110" height="50" as="geometry" />
        </mxCell>
        <mxCell id="JK57Fo3C8qKhbCxJsB5z-43" style="edgeStyle=orthogonalEdgeStyle;rounded=0;orthogonalLoop=1;jettySize=auto;html=1;exitX=1;exitY=0.5;exitDx=0;exitDy=0;fontSize=9;" parent="1" source="JK57Fo3C8qKhbCxJsB5z-4" target="JK57Fo3C8qKhbCxJsB5z-5" edge="1">
          <mxGeometry relative="1" as="geometry" />
        </mxCell>
        <mxCell id="JK57Fo3C8qKhbCxJsB5z-4" value="User&amp;nbsp; Repository" style="html=1;fontSize=9;" parent="1" vertex="1">
          <mxGeometry x="790" y="340" width="110" height="50" as="geometry" />
        </mxCell>
        <mxCell id="JK57Fo3C8qKhbCxJsB5z-5" value="User Model" style="html=1;fontSize=9;" parent="1" vertex="1">
          <mxGeometry x="940" y="340" width="110" height="50" as="geometry" />
        </mxCell>
        <mxCell id="JK57Fo3C8qKhbCxJsB5z-37" style="edgeStyle=orthogonalEdgeStyle;rounded=0;orthogonalLoop=1;jettySize=auto;html=1;exitX=1;exitY=0.5;exitDx=0;exitDy=0;fontSize=9;" parent="1" source="JK57Fo3C8qKhbCxJsB5z-7" target="JK57Fo3C8qKhbCxJsB5z-8" edge="1">
          <mxGeometry relative="1" as="geometry" />
        </mxCell>
        <mxCell id="JK57Fo3C8qKhbCxJsB5z-65" style="edgeStyle=orthogonalEdgeStyle;rounded=0;orthogonalLoop=1;jettySize=auto;html=1;exitX=0.5;exitY=1;exitDx=0;exitDy=0;entryX=0.5;entryY=0;entryDx=0;entryDy=0;fontSize=9;" parent="1" source="JK57Fo3C8qKhbCxJsB5z-7" target="JK57Fo3C8qKhbCxJsB5z-31" edge="1">
          <mxGeometry relative="1" as="geometry" />
        </mxCell>
        <mxCell id="JK57Fo3C8qKhbCxJsB5z-7" value="Store Rest Controller" style="html=1;fontSize=9;" parent="1" vertex="1">
          <mxGeometry x="490" y="480" width="110" height="50" as="geometry" />
        </mxCell>
        <mxCell id="JK57Fo3C8qKhbCxJsB5z-34" style="edgeStyle=orthogonalEdgeStyle;rounded=0;orthogonalLoop=1;jettySize=auto;html=1;exitX=1;exitY=0.5;exitDx=0;exitDy=0;entryX=0;entryY=0.5;entryDx=0;entryDy=0;fontSize=9;" parent="1" source="JK57Fo3C8qKhbCxJsB5z-8" target="JK57Fo3C8qKhbCxJsB5z-9" edge="1">
          <mxGeometry relative="1" as="geometry" />
        </mxCell>
        <mxCell id="JK57Fo3C8qKhbCxJsB5z-35" style="edgeStyle=orthogonalEdgeStyle;rounded=0;orthogonalLoop=1;jettySize=auto;html=1;exitX=1;exitY=0.5;exitDx=0;exitDy=0;entryX=0;entryY=0.5;entryDx=0;entryDy=0;fontSize=9;" parent="1" source="JK57Fo3C8qKhbCxJsB5z-8" target="JK57Fo3C8qKhbCxJsB5z-10" edge="1">
          <mxGeometry relative="1" as="geometry" />
        </mxCell>
        <mxCell id="JK57Fo3C8qKhbCxJsB5z-36" style="edgeStyle=orthogonalEdgeStyle;rounded=0;orthogonalLoop=1;jettySize=auto;html=1;exitX=1;exitY=0.5;exitDx=0;exitDy=0;entryX=0;entryY=0.5;entryDx=0;entryDy=0;fontSize=9;" parent="1" source="JK57Fo3C8qKhbCxJsB5z-8" target="JK57Fo3C8qKhbCxJsB5z-18" edge="1">
          <mxGeometry relative="1" as="geometry" />
        </mxCell>
        <mxCell id="JK57Fo3C8qKhbCxJsB5z-8" value="Store Service" style="html=1;fontSize=9;" parent="1" vertex="1">
          <mxGeometry x="640" y="480" width="110" height="50" as="geometry" />
        </mxCell>
        <mxCell id="JK57Fo3C8qKhbCxJsB5z-9" value="Store&amp;nbsp; Repository" style="html=1;fontSize=9;" parent="1" vertex="1">
          <mxGeometry x="790" y="410" width="110" height="50" as="geometry" />
        </mxCell>
        <mxCell id="JK57Fo3C8qKhbCxJsB5z-10" value="Store Transaction" style="html=1;fontSize=9;" parent="1" vertex="1">
          <mxGeometry x="940" y="450" width="110" height="50" as="geometry" />
        </mxCell>
        <mxCell id="JK57Fo3C8qKhbCxJsB5z-50" style="edgeStyle=orthogonalEdgeStyle;rounded=0;orthogonalLoop=1;jettySize=auto;html=1;exitX=1;exitY=0.5;exitDx=0;exitDy=0;entryX=0;entryY=0.5;entryDx=0;entryDy=0;fontSize=9;" parent="1" source="JK57Fo3C8qKhbCxJsB5z-13" target="JK57Fo3C8qKhbCxJsB5z-14" edge="1">
          <mxGeometry relative="1" as="geometry" />
        </mxCell>
        <mxCell id="JK57Fo3C8qKhbCxJsB5z-51" style="edgeStyle=orthogonalEdgeStyle;rounded=0;orthogonalLoop=1;jettySize=auto;html=1;exitX=0.5;exitY=1;exitDx=0;exitDy=0;fontSize=9;" parent="1" source="JK57Fo3C8qKhbCxJsB5z-13" target="JK57Fo3C8qKhbCxJsB5z-16" edge="1">
          <mxGeometry relative="1" as="geometry" />
        </mxCell>
        <mxCell id="JK57Fo3C8qKhbCxJsB5z-13" value="Card Model Repository" style="html=1;fontSize=9;" parent="1" vertex="1">
          <mxGeometry x="790" y="640" width="110" height="50" as="geometry" />
        </mxCell>
        <mxCell id="JK57Fo3C8qKhbCxJsB5z-69" style="edgeStyle=orthogonalEdgeStyle;rounded=0;orthogonalLoop=1;jettySize=auto;html=1;exitX=0.5;exitY=1;exitDx=0;exitDy=0;entryX=0.5;entryY=1;entryDx=0;entryDy=0;fontSize=9;" parent="1" source="JK57Fo3C8qKhbCxJsB5z-14" target="JK57Fo3C8qKhbCxJsB5z-19" edge="1">
          <mxGeometry relative="1" as="geometry" />
        </mxCell>
        <mxCell id="JK57Fo3C8qKhbCxJsB5z-14" value="Card Model" style="html=1;fontSize=9;" parent="1" vertex="1">
          <mxGeometry x="940" y="640" width="110" height="50" as="geometry" />
        </mxCell>
        <mxCell id="JK57Fo3C8qKhbCxJsB5z-63" style="edgeStyle=orthogonalEdgeStyle;rounded=0;orthogonalLoop=1;jettySize=auto;html=1;exitX=0.5;exitY=1;exitDx=0;exitDy=0;entryX=0.5;entryY=0;entryDx=0;entryDy=0;fontSize=9;" parent="1" source="JK57Fo3C8qKhbCxJsB5z-16" target="JK57Fo3C8qKhbCxJsB5z-58" edge="1">
          <mxGeometry relative="1" as="geometry" />
        </mxCell>
        <mxCell id="JK57Fo3C8qKhbCxJsB5z-74" style="edgeStyle=orthogonalEdgeStyle;rounded=0;orthogonalLoop=1;jettySize=auto;html=1;exitX=1;exitY=0.5;exitDx=0;exitDy=0;entryX=0.5;entryY=1;entryDx=0;entryDy=0;fontSize=9;" parent="1" source="JK57Fo3C8qKhbCxJsB5z-16" target="JK57Fo3C8qKhbCxJsB5z-19" edge="1">
          <mxGeometry relative="1" as="geometry">
            <Array as="points">
              <mxPoint x="940" y="745" />
              <mxPoint x="940" y="910" />
              <mxPoint x="695" y="910" />
            </Array>
          </mxGeometry>
        </mxCell>
        <mxCell id="JK57Fo3C8qKhbCxJsB5z-16" value="Card Reference" style="html=1;fontSize=9;" parent="1" vertex="1">
          <mxGeometry x="790" y="720" width="110" height="50" as="geometry" />
        </mxCell>
        <mxCell id="JK57Fo3C8qKhbCxJsB5z-18" value="Store Action" style="html=1;fontSize=9;" parent="1" vertex="1">
          <mxGeometry x="940" y="530" width="110" height="50" as="geometry" />
        </mxCell>
        <mxCell id="JK57Fo3C8qKhbCxJsB5z-19" value="Card Basic" style="html=1;fontSize=9;" parent="1" vertex="1">
          <mxGeometry x="640" y="840" width="110" height="50" as="geometry" />
        </mxCell>
        <mxCell id="JK57Fo3C8qKhbCxJsB5z-48" style="edgeStyle=orthogonalEdgeStyle;rounded=0;orthogonalLoop=1;jettySize=auto;html=1;exitX=1;exitY=0.5;exitDx=0;exitDy=0;entryX=0;entryY=0.5;entryDx=0;entryDy=0;fontSize=9;" parent="1" source="JK57Fo3C8qKhbCxJsB5z-28" target="JK57Fo3C8qKhbCxJsB5z-29" edge="1">
          <mxGeometry relative="1" as="geometry" />
        </mxCell>
        <mxCell id="JK57Fo3C8qKhbCxJsB5z-56" style="edgeStyle=orthogonalEdgeStyle;rounded=0;orthogonalLoop=1;jettySize=auto;html=1;exitX=0.5;exitY=1;exitDx=0;exitDy=0;entryX=0.5;entryY=0;entryDx=0;entryDy=0;fontSize=9;" parent="1" source="JK57Fo3C8qKhbCxJsB5z-28" target="JK57Fo3C8qKhbCxJsB5z-55" edge="1">
          <mxGeometry relative="1" as="geometry" />
        </mxCell>
        <mxCell id="JK57Fo3C8qKhbCxJsB5z-28" value="Card Rest Controller" style="html=1;fontSize=9;" parent="1" vertex="1">
          <mxGeometry x="490" y="640" width="110" height="50" as="geometry" />
        </mxCell>
        <mxCell id="JK57Fo3C8qKhbCxJsB5z-49" style="edgeStyle=orthogonalEdgeStyle;rounded=0;orthogonalLoop=1;jettySize=auto;html=1;exitX=1;exitY=0.5;exitDx=0;exitDy=0;entryX=0;entryY=0.5;entryDx=0;entryDy=0;fontSize=9;" parent="1" source="JK57Fo3C8qKhbCxJsB5z-29" target="JK57Fo3C8qKhbCxJsB5z-13" edge="1">
          <mxGeometry relative="1" as="geometry" />
        </mxCell>
        <mxCell id="JK57Fo3C8qKhbCxJsB5z-52" style="edgeStyle=orthogonalEdgeStyle;rounded=0;orthogonalLoop=1;jettySize=auto;html=1;exitX=0.5;exitY=1;exitDx=0;exitDy=0;entryX=0.5;entryY=0;entryDx=0;entryDy=0;fontSize=9;" parent="1" source="JK57Fo3C8qKhbCxJsB5z-29" target="JK57Fo3C8qKhbCxJsB5z-30" edge="1">
          <mxGeometry relative="1" as="geometry" />
        </mxCell>
        <mxCell id="JK57Fo3C8qKhbCxJsB5z-29" value="Card Model Service" style="html=1;fontSize=9;" parent="1" vertex="1">
          <mxGeometry x="640" y="640" width="110" height="50" as="geometry" />
        </mxCell>
        <mxCell id="JK57Fo3C8qKhbCxJsB5z-71" style="edgeStyle=orthogonalEdgeStyle;rounded=0;orthogonalLoop=1;jettySize=auto;html=1;exitX=1;exitY=0.5;exitDx=0;exitDy=0;entryX=0;entryY=0.5;entryDx=0;entryDy=0;fontSize=9;" parent="1" source="JK57Fo3C8qKhbCxJsB5z-30" target="JK57Fo3C8qKhbCxJsB5z-16" edge="1">
          <mxGeometry relative="1" as="geometry" />
        </mxCell>
        <mxCell id="JK57Fo3C8qKhbCxJsB5z-73" style="edgeStyle=orthogonalEdgeStyle;rounded=0;orthogonalLoop=1;jettySize=auto;html=1;exitX=0.5;exitY=1;exitDx=0;exitDy=0;entryX=0;entryY=0.5;entryDx=0;entryDy=0;fontSize=9;" parent="1" source="JK57Fo3C8qKhbCxJsB5z-30" target="JK57Fo3C8qKhbCxJsB5z-58" edge="1">
          <mxGeometry relative="1" as="geometry">
            <Array as="points">
              <mxPoint x="695" y="810" />
              <mxPoint x="770" y="810" />
              <mxPoint x="770" y="865" />
            </Array>
          </mxGeometry>
        </mxCell>
        <mxCell id="JK57Fo3C8qKhbCxJsB5z-30" value="Card Reference Service" style="html=1;fontSize=9;" parent="1" vertex="1">
          <mxGeometry x="640" y="720" width="110" height="50" as="geometry" />
        </mxCell>
        <mxCell id="JK57Fo3C8qKhbCxJsB5z-31" value="Store Order" style="html=1;fontSize=9;" parent="1" vertex="1">
          <mxGeometry x="490" y="550" width="110" height="50" as="geometry" />
        </mxCell>
        <mxCell id="JK57Fo3C8qKhbCxJsB5z-32" value="Auth DTO" style="html=1;fontSize=9;" parent="1" vertex="1">
          <mxGeometry x="490" y="410" width="110" height="50" as="geometry" />
        </mxCell>
        <mxCell id="JK57Fo3C8qKhbCxJsB5z-33" value="User DTO" style="html=1;fontSize=9;" parent="1" vertex="1">
          <mxGeometry x="640" y="410" width="110" height="50" as="geometry" />
        </mxCell>
        <mxCell id="JK57Fo3C8qKhbCxJsB5z-72" style="edgeStyle=orthogonalEdgeStyle;rounded=0;orthogonalLoop=1;jettySize=auto;html=1;exitX=0.5;exitY=1;exitDx=0;exitDy=0;entryX=0;entryY=0.5;entryDx=0;entryDy=0;fontSize=9;" parent="1" source="JK57Fo3C8qKhbCxJsB5z-55" target="JK57Fo3C8qKhbCxJsB5z-19" edge="1">
          <mxGeometry relative="1" as="geometry" />
        </mxCell>
        <mxCell id="JK57Fo3C8qKhbCxJsB5z-55" value="Card DTO" style="html=1;fontSize=9;" parent="1" vertex="1">
          <mxGeometry x="490" y="720" width="110" height="50" as="geometry" />
        </mxCell>
        <mxCell id="JK57Fo3C8qKhbCxJsB5z-58" value="Card Reference Repository" style="html=1;fontSize=9;" parent="1" vertex="1">
          <mxGeometry x="790" y="840" width="110" height="50" as="geometry" />
        </mxCell>
      </root>
    </mxGraphModel>
  </diagram>
  <diagram id="q6-9jC7oAB2zPH2dC4kO" name="Micro-services">
    <mxGraphModel dx="1422" dy="758" grid="1" gridSize="10" guides="1" tooltips="1" connect="1" arrows="1" fold="1" page="1" pageScale="1" pageWidth="827" pageHeight="1169" math="0" shadow="0">
      <root>
        <mxCell id="0" />
        <mxCell id="1" parent="0" />
        <mxCell id="-AYmk7Q4W_H0u3OQL6Lk-1" value="&lt;p style=&quot;margin: 0px ; margin-top: 4px ; margin-left: 10px ; text-align: left&quot;&gt;&lt;b&gt;App Micro-Services&lt;/b&gt;&lt;/p&gt;&lt;p style=&quot;margin: 0px ; margin-top: 4px ; margin-left: 10px ; text-align: left&quot;&gt;&lt;b&gt;&lt;br&gt;&lt;/b&gt;&lt;/p&gt;" style="html=1;strokeWidth=1;shape=mxgraph.sysml.package;html=1;overflow=fill;whiteSpace=wrap;fillColor=none;gradientColor=none;fontSize=12;align=center;labelX=327.64;" vertex="1" parent="1">
          <mxGeometry x="14" y="200" width="800" height="650" as="geometry" />
        </mxCell>
      </root>
    </mxGraphModel>
  </diagram>
</mxfile>
